<?xml version="1.0" encoding="utf-8"?>
<svg version="1.1" xmlns:xlink="http://www.w3.org/1999/xlink" width="59px" height="59px" xmlns="http://www.w3.org/2000/svg">
  <g transform="matrix(1 0 0 1 -39 -31 )">
    <path d="M 68.5 31  C 85.02 31  98 43.98  98 60.5  C 98 77.02  85.02 90  68.5 90  C 51.98 90  39 77.02  39 60.5  C 39 43.98  51.98 31  68.5 31  Z " fill-rule="nonzero" fill="#ffffff" stroke="none" />
    <path d="M 68.5 31.5  C 84.74 31.5  97.5 44.26  97.5 60.5  C 97.5 76.74  84.74 89.5  68.5 89.5  C 52.26 89.5  39.5 76.74  39.5 60.5  C 39.5 44.26  52.26 31.5  68.5 31.5  Z " stroke-width="1" stroke="#797979" fill="none" />
  </g>
</svg>