<?xml version="1.0" encoding="utf-8"?>
<svg version="1.1" xmlns:xlink="http://www.w3.org/1999/xlink" width="41px" height="41px" xmlns="http://www.w3.org/2000/svg">
  <g transform="matrix(1 0 0 1 -22 -342 )">
    <path d="M 42.5 342  C 53.98 342  63 351.02  63 362.5  C 63 373.98  53.98 383  42.5 383  C 31.02 383  22 373.98  22 362.5  C 22 351.02  31.02 342  42.5 342  Z " fill-rule="nonzero" fill="#ffffff" stroke="none" />
    <path d="M 42.5 342.5  C 53.7 342.5  62.5 351.3  62.5 362.5  C 62.5 373.7  53.7 382.5  42.5 382.5  C 31.3 382.5  22.5 373.7  22.5 362.5  C 22.5 351.3  31.3 342.5  42.5 342.5  Z " stroke-width="1" stroke="#797979" fill="none" />
  </g>
</svg>