<?xml version="1.0" encoding="utf-8"?>
<svg version="1.1" xmlns:xlink="http://www.w3.org/1999/xlink" width="377px" height="137px" xmlns="http://www.w3.org/2000/svg">
  <g>
    <path d="M 0 0  L 377 0  L 377 137  L 0 137  L 0 0  " fill-rule="nonzero" fill="#cccccc" stroke="none" />
    <path d="M 10 10  L 367 10  L 367 127  L 10 127  L 10 10  " fill-rule="nonzero" fill="#ffffff" stroke="none" />
    <path d="M 206.315 41.1  C 200.561 41.1  196.04 36.579  196.04 30.825  C 196.04 25.071  200.561 20.55  206.315 20.55  C 212.069 20.55  216.59 25.071  216.59 30.825  C 216.59 36.579  212.069 41.1  206.315 41.1  " fill-rule="nonzero" fill="#cccccc" stroke="none" />
    <path d="M 14 124  L 14 63.5  L 101.5 36  L 224 100.015915119363  L 294 52.5  L 364 100.015915119363  L 364 124  L 14 124  " fill-rule="nonzero" fill="#169bd5" stroke="none" />
  </g>
</svg>