<?xml version="1.0" encoding="utf-8"?>
<svg version="1.1" xmlns:xlink="http://www.w3.org/1999/xlink" width="40px" height="50px" xmlns="http://www.w3.org/2000/svg">
  <defs>
    <filter x="430px" y="38px" width="40px" height="50px" filterUnits="userSpaceOnUse" id="filter9">
      <feOffset dx="1" dy="1" in="SourceAlpha" result="shadowOffsetInner" />
      <feGaussianBlur stdDeviation="2.5" in="shadowOffsetInner" result="shadowGaussian" />
      <feComposite in2="shadowGaussian" operator="atop" in="SourceAlpha" result="shadowComposite" />
      <feColorMatrix type="matrix" values="0 0 0 0 0  0 0 0 0 0  0 0 0 0 0  0 0 0 0.698039215686274 0  " in="shadowComposite" />
    </filter>
    <g id="widget10">
      <path d="M 449 81.0369284683536  C 443.2 71.4073405959099  434.5 65.6295878724437  434.5 56  C 434.5 50.9857142857143  437.4 42.5  449 42.5  C 460.6 42.5  463.5 50.9857142857143  463.5 56  C 463.5 65.6295878724437  454.8 71.4073405959099  449 81.0369284683536  Z " fill-rule="nonzero" fill="#009dd9" stroke="none" />
      <path d="M 449 82  C 443 72  434 66  434 56  C 434 50.8  437 42  449 42  C 461 42  464 50.8  464 56  C 464 66  455 72  449 82  Z M 449 80.0738569367072  C 454.6 70.8146811918198  463 65.2591757448874  463 56  C 463 51.1714285714286  460.2 43  449 43  C 437.8 43  435 51.1714285714286  435 56  C 435 65.2591757448874  443.4 70.8146811918198  449 80.0738569367072  Z " fill-rule="nonzero" fill="#ffffff" stroke="none" />
    </g>
  </defs>
  <g transform="matrix(1 0 0 1 -430 -38 )">
    <use xlink:href="#widget10" filter="url(#filter9)" />
    <use xlink:href="#widget10" />
  </g>
</svg>