<?xml version="1.0" encoding="utf-8"?>
<svg version="1.1" xmlns:xlink="http://www.w3.org/1999/xlink" width="38px" height="38px" xmlns="http://www.w3.org/2000/svg">
  <g transform="matrix(1 0 0 1 -277 -151 )">
    <path d="M 296 151  C 306.64 151  315 159.36  315 170  C 315 180.64  306.64 189  296 189  C 285.36 189  277 180.64  277 170  C 277 159.36  285.36 151  296 151  Z " fill-rule="nonzero" fill="#ffffff" stroke="none" />
    <path d="M 296 151.5  C 306.36 151.5  314.5 159.64  314.5 170  C 314.5 180.36  306.36 188.5  296 188.5  C 285.64 188.5  277.5 180.36  277.5 170  C 277.5 159.64  285.64 151.5  296 151.5  Z " stroke-width="1" stroke="#797979" fill="none" />
  </g>
</svg>