<?xml version="1.0" encoding="utf-8"?>
<svg version="1.1" xmlns:xlink="http://www.w3.org/1999/xlink" width="40px" height="50px" xmlns="http://www.w3.org/2000/svg">
  <defs>
    <filter x="413px" y="52px" width="40px" height="50px" filterUnits="userSpaceOnUse" id="filter4">
      <feOffset dx="1" dy="1" in="SourceAlpha" result="shadowOffsetInner" />
      <feGaussianBlur stdDeviation="2.5" in="shadowOffsetInner" result="shadowGaussian" />
      <feComposite in2="shadowGaussian" operator="atop" in="SourceAlpha" result="shadowComposite" />
      <feColorMatrix type="matrix" values="0 0 0 0 0  0 0 0 0 0  0 0 0 0 0  0 0 0 0.698039215686274 0  " in="shadowComposite" />
    </filter>
    <g id="widget5">
      <path d="M 432 95.0369284683536  C 426.2 85.4073405959099  417.5 79.6295878724437  417.5 70  C 417.5 64.9857142857143  420.4 56.5  432 56.5  C 443.6 56.5  446.5 64.9857142857143  446.5 70  C 446.5 79.6295878724437  437.8 85.4073405959099  432 95.0369284683536  Z " fill-rule="nonzero" fill="#009dd9" stroke="none" />
      <path d="M 432 96  C 426 86  417 80  417 70  C 417 64.8  420 56  432 56  C 444 56  447 64.8  447 70  C 447 80  438 86  432 96  Z M 432 94.0738569367072  C 437.6 84.8146811918198  446 79.2591757448874  446 70  C 446 65.1714285714286  443.2 57  432 57  C 420.8 57  418 65.1714285714286  418 70  C 418 79.2591757448874  426.4 84.8146811918198  432 94.0738569367072  Z " fill-rule="nonzero" fill="#ffffff" stroke="none" />
    </g>
  </defs>
  <g transform="matrix(1 0 0 1 -413 -52 )">
    <use xlink:href="#widget5" filter="url(#filter4)" />
    <use xlink:href="#widget5" />
  </g>
</svg>